<svg width="62" height="24" viewBox="0 0 62 24" fill="none" xmlns="http://www.w3.org/2000/svg">
<path fill-rule="evenodd" clip-rule="evenodd" d="M11.4737 0.733398C15.0567 0.733398 18.2491 2.40597 20.3127 5.01294C18.9982 7.02082 18.2337 9.42116 18.2337 12.0001C18.2337 14.579 18.9982 16.9793 20.313 18.9868C18.2491 21.5942 15.0567 23.2667 11.4737 23.2667C5.25129 23.2667 0.207031 18.2225 0.207031 12.0001C0.207031 5.77766 5.25129 0.733398 11.4737 0.733398ZM10.3295 5.11488H9.0531V7.20342C8.87072 7.20896 8.60278 7.21178 8.24919 7.21178L6.49221 7.20342V8.56265H7.4121C7.83202 8.56265 8.07789 8.75055 8.14971 9.12621V11.5049C8.20504 11.5049 8.24919 11.5077 8.28237 11.5132H8.14971V14.8448C8.10556 15.1265 7.94535 15.2675 7.66905 15.2675H6.74923L6.49221 16.7842L8.29836 16.7849C8.38387 16.7855 8.48629 16.7866 8.60569 16.7881C8.80456 16.7909 8.95368 16.7923 9.05316 16.7923V18.9056H10.3297V16.8171C10.4955 16.8212 10.7148 16.8237 10.9876 16.8248L11.3408 16.8255V18.9056H12.617V16.7923C13.0702 16.7702 13.4721 16.729 13.8228 16.668C14.1737 16.607 14.5094 16.5119 14.8298 16.3819C15.1502 16.2522 15.4181 16.0904 15.6335 15.8971C15.8491 15.7038 16.0271 15.4579 16.1683 15.1594C16.3089 14.861 16.3988 14.5157 16.4374 14.1233C16.5095 13.3555 16.3851 12.7643 16.0647 12.3498C15.7443 11.9355 15.2608 11.651 14.6143 11.4963C15.4376 11.0763 15.7994 10.3636 15.7001 9.35788C15.6669 8.9932 15.5661 8.67713 15.3975 8.40923C15.2288 8.14127 15.0011 7.92585 14.7136 7.76288C14.4264 7.59972 14.1139 7.4755 13.777 7.38987C13.4401 7.30423 13.0532 7.24206 12.6167 7.20342V5.11488H11.3405V7.14539C11.1195 7.14539 10.7825 7.15091 10.3295 7.16197V5.11488ZM11.2825 12.4577C11.4206 12.4577 11.6113 12.4659 11.8545 12.4826C12.0975 12.499 12.3019 12.5238 12.4678 12.5569C12.6335 12.5901 12.8143 12.6412 13.0106 12.7103C13.2067 12.7793 13.3656 12.8636 13.4872 12.963C13.6088 13.0627 13.7109 13.1895 13.7938 13.3443C13.8768 13.499 13.9183 13.6758 13.9183 13.8748C13.9183 14.0296 13.892 14.1703 13.8395 14.2975C13.7868 14.4246 13.7193 14.5352 13.6364 14.6292C13.5535 14.7229 13.4443 14.8059 13.309 14.8776C13.1737 14.9496 13.0424 15.0075 12.9154 15.0517C12.7883 15.0961 12.6349 15.1345 12.4555 15.1678C12.2757 15.201 12.1183 15.2243 11.9828 15.2382C11.8475 15.2521 11.686 15.2631 11.498 15.2714C11.3102 15.2796 11.1637 15.2838 11.0588 15.2838C10.9538 15.2838 10.8212 15.2823 10.6609 15.2796C10.5006 15.277 10.3985 15.2756 10.3542 15.2756V12.4742C10.3984 12.4742 10.5296 12.4715 10.7479 12.4659C10.9663 12.4603 11.1443 12.4577 11.2825 12.4577ZM11.61 8.66178C11.8117 8.67835 11.9816 8.7005 12.1197 8.72808C12.2578 8.75566 12.4098 8.80126 12.5754 8.8648C12.7413 8.92829 12.8739 9.00568 12.9732 9.09683C13.0727 9.18798 13.157 9.30406 13.2259 9.44497C13.2951 9.58584 13.3296 9.74744 13.3296 9.92974C13.3296 10.0845 13.3048 10.2254 13.2551 10.3525C13.2055 10.4796 13.1308 10.586 13.0314 10.6716C12.9321 10.7573 12.8296 10.8319 12.7246 10.8954C12.6198 10.9589 12.4857 11.0101 12.3227 11.0487C12.1598 11.0874 12.0175 11.1178 11.8961 11.1399C11.7745 11.162 11.6226 11.1772 11.4402 11.1855C11.2578 11.1937 11.1197 11.1993 11.0258 11.2021C10.9318 11.2048 10.8034 11.2048 10.6403 11.2021C10.4773 11.1993 10.3821 11.1979 10.3544 11.1979V8.65354C10.393 8.65356 10.5021 8.65217 10.6817 8.64938C10.8613 8.64654 11.0105 8.64381 11.1292 8.64102C11.2481 8.63829 11.4083 8.6452 11.61 8.66178Z" fill="#767B9F"/>
<path fill-rule="evenodd" clip-rule="evenodd" d="M31.001 0.733398C34.5841 0.733398 37.7765 2.40597 39.8401 5.01294C38.5256 7.02082 37.761 9.42116 37.761 12.0001C37.761 14.579 38.5256 16.9793 39.8403 18.9868C37.7765 21.5942 34.5841 23.2667 31.001 23.2667C24.7786 23.2667 19.7344 18.2225 19.7344 12.0001C19.7344 5.77766 24.7786 0.733398 31.001 0.733398ZM34.7914 12.2918L31.0184 14.0867L27.2455 12.2918L31.0184 18.8853L34.7914 12.2918ZM31.0184 10.2602L27.9442 11.7186L31.0184 13.1747L34.0977 11.7162L31.0184 10.2602ZM31.0184 5.11488L27.6525 10.961L31.0184 9.36433L34.3805 10.9543L31.0184 5.11488Z" fill="#767B9F"/>
<path fill-rule="evenodd" clip-rule="evenodd" d="M50.5362 0.733398C56.7586 0.733398 61.8029 5.77766 61.8029 12.0001C61.8029 18.2225 56.7586 23.2667 50.5362 23.2667C44.3138 23.2667 39.2695 18.2225 39.2695 12.0001C39.2695 5.77766 44.3138 0.733398 50.5362 0.733398ZM54.6897 6.99266H46.082V9.30466H49.2297V10.421C46.7544 10.5644 44.9029 11.1401 44.9029 11.8287C44.9029 12.5175 46.7544 13.0932 49.2297 13.2364V17.2257H51.5418V13.2418C54.0632 13.1079 55.9604 12.526 55.9604 11.8287C55.9604 11.1315 54.0632 10.5498 51.542 10.4156L51.5418 9.30466H54.6897V6.99266ZM51.5421 10.6683C53.713 10.7643 55.3315 11.1357 55.3315 11.5798C55.3315 12.0968 53.1377 12.5156 50.4316 12.5156C47.7255 12.5156 45.5317 12.0968 45.5317 11.5798C45.5317 11.1421 47.1047 10.7746 49.2297 10.6723L49.2299 12.0155C49.613 12.037 50.0156 12.0483 50.4316 12.0483C50.8146 12.0483 51.1865 12.0385 51.5421 12.0207V10.6683Z" fill="#767B9F"/>
</svg>
