<svg width="16" height="12" viewBox="0 0 16 12" fill="none" xmlns="http://www.w3.org/2000/svg">
<path fill-rule="evenodd" clip-rule="evenodd" d="M0 0H16V12H0V0Z" fill="#E31D1C"/>
<path fill-rule="evenodd" clip-rule="evenodd" d="M0 1V2H16V1H0ZM0 3V4H16V3H0ZM0 6V5H16V6H0ZM0 7V8H16V7H0ZM0 10V9H16V10H0ZM0 12V11H16V12H0Z" fill="#F7FCFF"/>
<rect width="9" height="7" fill="#2E42A5"/>
<path fill-rule="evenodd" clip-rule="evenodd" d="M1.04001 2.17375L1.56993 1.80462L1.98099 2.10055H1.74825L2.21892 2.51685L2.05995 3.10055H1.81096L1.56919 2.56445L1.36301 3.10055H0.748253L1.21892 3.51685L1.04001 4.17375L1.56993 3.80462L1.98099 4.10055H1.74825L2.21892 4.51685L2.05995 5.10055H1.81096L1.56919 4.56445L1.36301 5.10055H0.748253L1.21892 5.51685L1.04001 6.17375L1.56993 5.80462L2.08267 6.17375L1.92326 5.51685L2.33502 5.10055H2.1451L2.56993 4.80462L2.98099 5.10055H2.74825L3.21892 5.51685L3.04001 6.17375L3.56993 5.80462L4.08267 6.17375L3.92326 5.51685L4.33502 5.10055H4.1451L4.56993 4.80462L4.98099 5.10055H4.74825L5.21892 5.51685L5.04001 6.17375L5.56993 5.80462L6.08267 6.17375L5.92326 5.51685L6.33502 5.10055H6.1451L6.56993 4.80462L6.98099 5.10055H6.74825L7.21892 5.51685L7.04001 6.17375L7.56993 5.80462L8.08267 6.17375L7.92326 5.51685L8.33502 5.10055H7.81096L7.56919 4.56445L7.36301 5.10055H7.06491L6.92326 4.51685L7.33502 4.10055H7.1451L7.56993 3.80462L8.08267 4.17375L7.92326 3.51685L8.33502 3.10055H7.81096L7.56919 2.56445L7.36301 3.10055H7.06491L6.92326 2.51685L7.33502 2.10055H7.1451L7.56993 1.80462L8.08267 2.17375L7.92326 1.51685L8.33502 1.10055H7.81096L7.56919 0.564453L7.36301 1.10055H6.74825L7.21892 1.51685L7.05995 2.10055H6.81096L6.56919 1.56445L6.36301 2.10055H6.06491L5.92326 1.51685L6.33502 1.10055H5.81096L5.56919 0.564453L5.36301 1.10055H4.74825L5.21892 1.51685L5.05995 2.10055H4.81096L4.56919 1.56445L4.36301 2.10055H4.06491L3.92326 1.51685L4.33502 1.10055H3.81096L3.56919 0.564453L3.36301 1.10055H2.74825L3.21892 1.51685L3.05995 2.10055H2.81096L2.56919 1.56445L2.36301 2.10055H2.06491L1.92326 1.51685L2.33502 1.10055H1.81096L1.56919 0.564453L1.36301 1.10055H0.748253L1.21892 1.51685L1.04001 2.17375ZM7.05995 4.10055L7.21892 3.51685L6.74825 3.10055H6.98099L6.56993 2.80462L6.1451 3.10055H6.33502L5.92326 3.51685L6.06491 4.10055H6.36301L6.56919 3.56445L6.81096 4.10055H7.05995ZM5.98099 4.10055L5.56993 3.80462L5.1451 4.10055H5.33502L4.92326 4.51685L5.06491 5.10055H5.36301L5.56919 4.56445L5.81096 5.10055H6.05995L6.21892 4.51685L5.74825 4.10055H5.98099ZM4.21892 4.51685L4.05995 5.10055H3.81096L3.56919 4.56445L3.36301 5.10055H3.06491L2.92326 4.51685L3.33502 4.10055H3.1451L3.56993 3.80462L3.98099 4.10055H3.74825L4.21892 4.51685ZM4.36301 4.10055H4.06491L3.92326 3.51685L4.33502 3.10055H4.1451L4.56993 2.80462L4.98099 3.10055H4.74825L5.21892 3.51685L5.05995 4.10055H4.81096L4.56919 3.56445L4.36301 4.10055ZM3.05995 4.10055L3.21892 3.51685L2.74825 3.10055H2.98099L2.56993 2.80462L2.1451 3.10055H2.33502L1.92326 3.51685L2.06491 4.10055H2.36301L2.56919 3.56445L2.81096 4.10055H3.05995ZM6.21892 2.51685L6.05995 3.10055H5.81096L5.56919 2.56445L5.36301 3.10055H5.06491L4.92326 2.51685L5.33502 2.10055H5.1451L5.56993 1.80462L5.98099 2.10055H5.74825L6.21892 2.51685ZM3.98099 2.10055L3.56993 1.80462L3.1451 2.10055H3.33502L2.92326 2.51685L3.06491 3.10055H3.36301L3.56919 2.56445L3.81096 3.10055H4.05995L4.21892 2.51685L3.74825 2.10055H3.98099Z" fill="#F7FCFF"/>
</svg>
