<svg width="16" height="12" viewBox="0 0 16 12" fill="none" xmlns="http://www.w3.org/2000/svg">
<path fill-rule="evenodd" clip-rule="evenodd" d="M0 0V12H16V0H0Z" fill="#FFB400"/>
<path fill-rule="evenodd" clip-rule="evenodd" d="M0 0V3H16V0H0Z" fill="#C51918"/>
<path fill-rule="evenodd" clip-rule="evenodd" d="M0 9V12H16V9H0Z" fill="#C51918"/>
<rect x="2.50401" y="5.13599" width="0.56" height="2.912" fill="#F1F9FF"/>
<path fill-rule="evenodd" clip-rule="evenodd" d="M3.288 4.63208H2.28V4.91208H2.448V5.13608H3.12V4.91208H3.288V4.63208Z" fill="#C88A02"/>
<path fill-rule="evenodd" clip-rule="evenodd" d="M3.12 8.21594H3.288V8.49594H2.28V8.21594H2.448V7.99194H3.12V8.21594Z" fill="#C88A02"/>
<path fill-rule="evenodd" clip-rule="evenodd" d="M2.78401 4.68802C2.90588 4.68802 2.91827 4.64213 2.99016 4.5736C3.04599 4.52038 3.17601 4.45437 3.17601 4.38002C3.17601 4.20992 3.00051 4.07202 2.78401 4.07202C2.56752 4.07202 2.39201 4.20992 2.39201 4.38002C2.39201 4.46286 2.48155 4.51824 2.54926 4.5736C2.62058 4.63192 2.67294 4.68802 2.78401 4.68802Z" fill="#AD1619"/>
<path fill-rule="evenodd" clip-rule="evenodd" d="M2.28 8.49609H3.288V8.94409C3.288 8.94409 3.162 8.88809 3.036 8.88809C2.91 8.88809 2.784 8.94409 2.784 8.94409C2.784 8.94409 2.658 8.88809 2.532 8.88809C2.406 8.88809 2.28 8.94409 2.28 8.94409V8.49609Z" fill="#005BBF"/>
<mask id="mask0_744_103913" style="mask-type:alpha" maskUnits="userSpaceOnUse" x="2" y="8" width="2" height="1">
<path fill-rule="evenodd" clip-rule="evenodd" d="M2.28 8.49609H3.288V8.94409C3.288 8.94409 3.162 8.88809 3.036 8.88809C2.91 8.88809 2.784 8.94409 2.784 8.94409C2.784 8.94409 2.658 8.88809 2.532 8.88809C2.406 8.88809 2.28 8.94409 2.28 8.94409V8.49609Z" fill="white"/>
</mask>
<g mask="url(#mask0_744_103913)">
</g>
<rect x="7.992" y="5.13599" width="0.56" height="2.912" fill="#F1F9FF"/>
<path fill-rule="evenodd" clip-rule="evenodd" d="M8.77601 4.63208H7.76801V4.91208H7.93601V5.13608H8.60801V4.91208H8.77601V4.63208Z" fill="#C88A02"/>
<path fill-rule="evenodd" clip-rule="evenodd" d="M8.60801 8.21594H8.77601V8.49594H7.76801V8.21594H7.93601V7.99194H8.60801V8.21594Z" fill="#C88A02"/>
<path fill-rule="evenodd" clip-rule="evenodd" d="M8.272 4.68802C8.39387 4.68802 8.40626 4.64213 8.47815 4.5736C8.53398 4.52038 8.664 4.45437 8.664 4.38002C8.664 4.20992 8.4885 4.07202 8.272 4.07202C8.05551 4.07202 7.88 4.20992 7.88 4.38002C7.88 4.46286 7.96954 4.51824 8.03725 4.5736C8.10857 4.63192 8.16093 4.68802 8.272 4.68802Z" fill="#AD1619"/>
<path fill-rule="evenodd" clip-rule="evenodd" d="M7.76801 8.49609H8.77601V8.94409C8.77601 8.94409 8.65001 8.88809 8.52401 8.88809C8.39801 8.88809 8.27201 8.94409 8.27201 8.94409C8.27201 8.94409 8.14601 8.88809 8.02001 8.88809C7.89401 8.88809 7.76801 8.94409 7.76801 8.94409V8.49609Z" fill="#005BBF"/>
<mask id="mask1_744_103913" style="mask-type:alpha" maskUnits="userSpaceOnUse" x="7" y="8" width="2" height="1">
<path fill-rule="evenodd" clip-rule="evenodd" d="M7.76801 8.49609H8.77601V8.94409C8.77601 8.94409 8.65001 8.88809 8.52401 8.88809C8.39801 8.88809 8.27201 8.94409 8.27201 8.94409C8.27201 8.94409 8.14601 8.88809 8.02001 8.88809C7.89401 8.88809 7.76801 8.94409 7.76801 8.94409V8.49609Z" fill="white"/>
</mask>
<g mask="url(#mask1_744_103913)">
</g>
<path fill-rule="evenodd" clip-rule="evenodd" d="M2.49399 7.83994C2.59495 7.71754 2.65141 7.60618 2.65141 7.48791C2.65141 7.41334 2.62922 7.34893 2.59034 7.29631L2.5969 7.29336C2.5963 7.29363 2.70767 7.24509 2.74644 7.22649C2.81851 7.19194 2.88201 7.15533 2.94392 7.11031C2.98345 7.08156 3.03641 7.05025 3.11714 7.0069L3.21349 6.95568C3.25272 6.93474 3.28194 6.9187 3.30909 6.90295C3.39367 6.85389 3.44957 6.81334 3.49232 6.75912C3.59358 6.63072 3.57256 6.45666 3.43066 6.36005C3.36114 6.31272 3.26733 6.28556 3.12981 6.26418L2.93313 6.23369C2.86733 6.22336 2.80861 6.21372 2.75626 6.20457C3.10054 6.14728 3.59216 6.16834 3.80841 6.27999L4.01394 5.88192C3.57326 5.65439 2.5692 5.67763 2.19413 5.93592C1.91903 6.12538 1.95595 6.41176 2.24218 6.53508C2.36178 6.58661 2.51769 6.6208 2.80622 6.66715C2.75786 6.6952 2.71778 6.72083 2.68043 6.74799C2.64255 6.77553 2.60197 6.79893 2.55274 6.82253C2.5292 6.83382 2.45951 6.86442 2.42755 6.87845L2.42753 6.87846L2.42752 6.87847L2.41147 6.88554C2.17832 6.99155 2.06517 7.1382 2.09899 7.40293L2.11729 7.54624L2.15012 7.55632L2.49399 7.83994ZM2.20579 7.4696L2.20508 7.47166L2.20563 7.4702L2.20579 7.4696ZM8.35298 7.48791C8.35298 7.60618 8.40944 7.71754 8.5104 7.83994L8.85427 7.55632L8.8871 7.54624L8.9054 7.40293C8.93922 7.1382 8.82607 6.99155 8.59292 6.88554L8.57686 6.87846C8.54492 6.86444 8.47519 6.83382 8.45165 6.82253C8.40242 6.79893 8.36184 6.77553 8.32396 6.74799C8.28661 6.72083 8.24653 6.6952 8.19817 6.66715C8.4867 6.6208 8.64261 6.58661 8.76222 6.53508C9.04844 6.41176 9.08536 6.12538 8.81026 5.93592C8.43519 5.67763 7.43113 5.65439 6.99045 5.88192L7.19598 6.27999C7.41223 6.16834 7.90385 6.14728 8.24813 6.20457C8.19578 6.21372 8.13706 6.22336 8.07126 6.23369L7.87458 6.26418C7.73706 6.28556 7.64325 6.31272 7.57373 6.36005C7.43184 6.45666 7.41081 6.63072 7.51207 6.75912C7.55482 6.81334 7.61072 6.85389 7.6953 6.90295C7.72245 6.9187 7.75167 6.93474 7.7909 6.95568L7.88725 7.0069C7.96798 7.05025 8.02094 7.08156 8.06047 7.11031C8.12238 7.15533 8.18588 7.19194 8.25795 7.22649C8.29673 7.24509 8.40809 7.29363 8.40749 7.29336L8.41405 7.29631C8.37517 7.34893 8.35298 7.41334 8.35298 7.48791Z" fill="#AD1619"/>
<path d="M2.96169 6.19995L3.12698 6.23415V6.48052C2.95094 6.62098 2.50401 6.85773 2.50401 6.85773V6.19995H2.96169Z" fill="#F1F9FF"/>
<path d="M8.1573 6.19995L7.99201 6.23415V6.48052C8.16805 6.62098 8.61497 6.85773 8.61497 6.85773V6.19995H8.1573Z" fill="#F1F9FF"/>
<path fill-rule="evenodd" clip-rule="evenodd" d="M7.38801 3.60314V3.52114C7.09997 3.31442 6.79833 3.21106 6.4831 3.21106C6.18088 3.07732 5.87499 3.02541 5.5654 3.05532C5.56549 3.05437 5.56553 3.05388 5.56553 3.05388C5.10004 3.00833 4.63093 3.21106 4.63093 3.21106C4.15807 3.21106 3.72601 3.52114 3.72601 3.52114V3.60314L4.29083 4.1704C4.29083 4.1704 4.44975 4.7162 5.56264 4.58814C5.56303 4.58902 5.56323 4.58946 5.56323 4.58946C5.56323 4.58946 6.30041 4.56934 6.3522 4.55211C6.37276 4.54527 6.39407 4.53905 6.41585 4.53269C6.56024 4.49054 6.72508 4.44241 6.82319 4.1704L7.38801 3.60314ZM5.56287 3.08465C5.56054 3.11217 5.55685 3.15696 5.55248 3.21424C5.55802 3.17319 5.56174 3.13013 5.56287 3.08465Z" fill="#AD1619"/>
<path fill-rule="evenodd" clip-rule="evenodd" d="M3.75987 3.69923L3.79825 3.65845L4.31109 4.14095C4.40844 4.11477 4.93686 3.98012 5.5271 3.97349V3.97324L5.54955 3.9733L5.57201 3.97324V3.97349C6.22595 3.98084 6.80401 4.14533 6.80401 4.14533C6.80401 4.14533 6.79782 4.19841 6.78277 4.26081C6.7987 4.22814 6.81757 4.19184 6.83938 4.15178L6.84479 4.14478L7.3617 3.65845L7.40008 3.69923L6.88643 4.18249C6.81149 4.3205 6.77375 4.4116 6.77375 4.44944C6.77375 4.50717 6.62355 4.54144 6.33042 4.57663C6.10078 4.6042 5.82977 4.62271 5.60808 4.62548V4.62584L5.57998 4.62574L5.55187 4.62584V4.62548C5.33019 4.62271 5.05917 4.6042 4.82953 4.57663C4.5364 4.54144 4.3862 4.50717 4.3862 4.44944C4.3862 4.44228 4.38485 4.43322 4.38215 4.42229C4.3526 4.38465 4.33181 4.32307 4.31799 4.26752C4.30501 4.24154 4.29019 4.21318 4.27352 4.18249L3.75987 3.69923ZM6.62651 4.45054C6.66575 4.4689 6.6972 4.45058 6.72206 4.41542C6.71991 4.42513 6.71857 4.43391 6.71802 4.44178C6.71474 4.44393 6.7097 4.44651 6.70309 4.44929C6.68465 4.45705 6.65648 4.46531 6.61983 4.47367C6.5478 4.4901 6.44526 4.50644 6.32375 4.52103C6.08645 4.54952 5.80429 4.56827 5.57998 4.56974C5.35566 4.56827 5.0735 4.54952 4.8362 4.52103C4.71469 4.50644 4.61215 4.4901 4.54012 4.47367C4.5094 4.46666 4.48464 4.45972 4.46657 4.4531L4.4726 4.45054C4.59493 4.39329 5.40388 4.33958 5.54955 4.33031C5.69523 4.33958 6.50418 4.39329 6.62651 4.45054ZM6.78078 4.44028L6.77993 4.44126L6.78044 4.44055L6.78078 4.44028Z" fill="#C88A02"/>
<path fill-rule="evenodd" clip-rule="evenodd" d="M5.55612 2.67365C5.64891 2.67365 5.72412 2.59843 5.72412 2.50565C5.72412 2.41286 5.64891 2.33765 5.55612 2.33765C5.46334 2.33765 5.38812 2.41286 5.38812 2.50565C5.38812 2.59843 5.46334 2.67365 5.55612 2.67365Z" fill="#005BBF"/>
<path fill-rule="evenodd" clip-rule="evenodd" d="M5.49342 2.03833H5.61008V2.11203H5.68631V2.2287H5.61008V2.46203H5.68631V2.5787H5.416V2.46203H5.49342V2.2287H5.416V2.11203H5.49342V2.03833Z" fill="#C88A02"/>
<rect x="5.472" y="2.67212" width="0.224" height="0.728" fill="#C88A02"/>
<path d="M3.85388 3.64855L3.54626 3.63699C3.6914 2.79819 4.40619 2.38721 5.5484 2.38721C6.69209 2.38721 7.40435 2.79997 7.53857 3.64188L7.12253 3.68552C7.05721 3.27582 6.37098 2.90505 5.55441 2.90505C4.73636 2.90505 3.92531 3.23573 3.85388 3.64855Z" fill="#C88A02"/>
<path opacity="0.3" fill-rule="evenodd" clip-rule="evenodd" d="M3.73601 4.63208H7.37601V7.9025C7.37601 7.9025 7.10562 9.00008 5.55601 9.00008C4.0064 9.00008 3.73601 7.87356 3.73601 7.87356V4.63208Z" fill="#E1E5E8"/>
<mask id="mask2_744_103913" style="mask-type:alpha" maskUnits="userSpaceOnUse" x="3" y="4" width="5" height="5">
<path fill-rule="evenodd" clip-rule="evenodd" d="M3.73601 4.63208H7.37601V7.9025C7.37601 7.9025 7.10562 9.00008 5.55601 9.00008C4.0064 9.00008 3.73601 7.87356 3.73601 7.87356V4.63208Z" fill="white"/>
</mask>
<g mask="url(#mask2_744_103913)">
<rect x="3.73601" y="6.64819" width="1.848" height="2.184" fill="#FFC034"/>
<rect x="3.73601" y="4.57617" width="1.848" height="2.128" fill="#AD1619"/>
<rect x="5.52802" y="6.59204" width="1.848" height="2.128" fill="#AD1619"/>
<rect x="5.52802" y="4.63208" width="1.96" height="2.072" fill="#F1F9FF"/>
<path fill-rule="evenodd" clip-rule="evenodd" d="M6.74136 8.72153C6.74136 8.72153 5.55526 8.81478 5.55526 8.0498C5.55526 8.0498 5.54395 8.72153 4.30545 8.72153V9.32544H6.74136V8.72153Z" fill="#F1F9FF"/>
<path fill-rule="evenodd" clip-rule="evenodd" d="M5.556 7.0962C5.78796 7.0962 5.976 6.89562 5.976 6.6482C5.976 6.40077 5.78796 6.2002 5.556 6.2002C5.32404 6.2002 5.136 6.40077 5.136 6.6482C5.136 6.89562 5.32404 7.0962 5.556 7.0962Z" fill="#005BBF" stroke="#AD1619" stroke-width="0.583333"/>
</g>
<path fill-rule="evenodd" clip-rule="evenodd" d="M4.5 6C4.77614 6 5 5.77614 5 5.5C5 5.22386 4.77614 5 4.5 5C4.22386 5 4 5.22386 4 5.5C4 5.77614 4.22386 6 4.5 6Z" fill="#C88A02"/>
<path fill-rule="evenodd" clip-rule="evenodd" d="M6.5 6C6.77614 6 7 5.77614 7 5.5C7 5.22386 6.77614 5 6.5 5C6.22386 5 6 5.22386 6 5.5C6 5.77614 6.22386 6 6.5 6Z" fill="#C37C9C"/>
<path fill-rule="evenodd" clip-rule="evenodd" d="M6.5 8C6.77614 8 7 7.77614 7 7.5C7 7.22386 6.77614 7 6.5 7C6.22386 7 6 7.22386 6 7.5C6 7.77614 6.22386 8 6.5 8Z" fill="#FFC034"/>
<path d="M4.5 8C4.77614 8 5 7.77614 5 7.5C5 7.22386 4.77614 7 4.5 7C4.22386 7 4 7.22386 4 7.5C4 7.77614 4.22386 8 4.5 8Z" fill="#AD1619"/>
</svg>
